<svg width="24" viewBox="0 0 22 24" fill="none" xmlns="http://www.w3.org/2000/svg" role="presentation" alt="" data-testid="SupportShieldIcon" size="24" color="currentColor"><path fill-rule="evenodd" clip-rule="evenodd" d="M0.833008 5.81122L11.2908 0L21.8231 5.81122C21.8975 11.2613 21.8231 17.762 11.2908 24C1.88356 18.4765 1.43645 12.7231 1.08966 8.26043C1.02212 7.39132 0.958383 6.57117 0.833008 5.81122ZM9.43606 13.572C9.43606 14.064 9.68806 14.31 10.1921 14.31H10.9121C11.1281 14.31 11.2901 14.274 11.3981 14.202C11.5061 14.118 11.5841 13.98 11.6321 13.788L11.6681 13.482C11.7041 13.182 11.8061 12.912 11.9741 12.672C12.1421 12.432 12.3401 12.204 12.5681 11.988C12.8081 11.76 13.0541 11.532 13.3061 11.304C13.5701 11.064 13.8101 10.806 14.0261 10.53C14.2541 10.254 14.4401 9.94202 14.5841 9.59402C14.7281 9.23402 14.8001 8.82002 14.8001 8.35202C14.8001 7.82402 14.6861 7.35002 14.4581 6.93002C14.2421 6.51002 13.9481 6.15602 13.5761 5.86802C13.2161 5.58002 12.7961 5.35802 12.3161 5.20202C11.8481 5.04602 11.3621 4.96802 10.8581 4.96802C10.2101 4.96802 9.65206 5.06402 9.18406 5.25602C8.71606 5.43602 8.34406 5.61602 8.06806 5.79602C7.86406 5.92802 7.75606 6.07802 7.74406 6.24602C7.73206 6.41402 7.79806 6.60002 7.94206 6.80402L8.24806 7.25402C8.38006 7.45802 8.54206 7.56602 8.73406 7.57802C8.92606 7.59002 9.12406 7.54202 9.32806 7.43402C9.49606 7.35002 9.68806 7.27202 9.90406 7.20002C10.1321 7.11602 10.3841 7.07402 10.6601 7.07402C11.1521 7.07402 11.5661 7.21802 11.9021 7.50602C12.2381 7.79402 12.4061 8.14802 12.4061 8.56802C12.4061 8.88002 12.3341 9.16202 12.1901 9.41402C12.0461 9.65402 11.8601 9.88802 11.6321 10.116C11.4161 10.332 11.1761 10.548 10.9121 10.764C10.6601 10.98 10.4201 11.214 10.1921 11.466C9.97606 11.706 9.79606 11.976 9.65206 12.276C9.50806 12.564 9.43606 12.9 9.43606 13.284V13.572ZM10.1921 15.858C9.68806 15.858 9.43606 16.11 9.43606 16.614V17.244C9.43606 17.748 9.68806 18 10.1921 18H10.9121C11.4041 18 11.6501 17.748 11.6501 17.244V16.614C11.6501 16.11 11.4041 15.858 10.9121 15.858H10.1921Z" fill="red"></path></svg>