<svg width="24" viewBox="0 0 25 24" fill="none" xmlns="http://www.w3.org/2000/svg" role="presentation" alt="" data-testid="CompassIcon" size="24" color="currentColor"><path fill-rule="evenodd" clip-rule="evenodd" d="M21.8794 12C21.8794 17.0881 17.7547 21.2129 12.6665 21.2129C7.57836 21.2129 3.4536 17.0881 3.4536 12C3.4536 6.91185 7.57836 2.7871 12.6665 2.7871C17.7547 2.7871 21.8794 6.91185 21.8794 12ZM24.6665 12C24.6665 18.6274 19.2939 24 12.6665 24C6.03909 24 0.666504 18.6274 0.666504 12C0.666504 5.37258 6.03909 0 12.6665 0C19.2939 0 24.6665 5.37258 24.6665 12ZM8.28551 17.4164C7.60253 17.6643 6.94067 17.0024 7.18852 16.3194L9.52478 9.88164C9.69785 9.40473 10.0735 9.02911 10.5504 8.85604L16.9881 6.51978C17.6711 6.27193 18.333 6.93379 18.0851 7.61677L15.7489 14.0545C15.5758 14.5314 15.2002 14.9071 14.7233 15.0801L8.28551 17.4164ZM13.6071 10.9977C14.143 11.5336 14.143 12.4024 13.6071 12.9383C13.0713 13.4742 12.2024 13.4742 11.6666 12.9383C11.1307 12.4024 11.1307 11.5336 11.6666 10.9977C12.2024 10.4619 13.0713 10.4619 13.6071 10.9977Z" fill="red"></path></svg>